# xmcd CD database file
#
# Track frame offsets:
#	150
#	35895
#	85693
#	144928
#	199779
#	229398
#
# Disc length: 3966 seconds
#
# Revision: 0
# Processed by: cddbd v1.5.2PL0 Copyright (c) Steve Scherf et al.
# Submitted via: CDex 1.51
#
DISCID=4d0f7c06
DTITLE=Bill Frisell - Live In New York, May 1st, 2004
DYEAR=2004
DGENRE=Jazz
TTITLE0=Lost Highway
TTITLE1=Throughout
TTITLE2=S.K.J.
TTITLE3=Strange Meeting
TTITLE4=Richter 858-7 - 858-8
TTITLE5=Follow Your Heart
EXTD=YEAR: 2004
EXTT0=
EXTT1=
EXTT2=
EXTT3=
EXTT4=
EXTT5=
PLAYORDER=
